<?xml version="1.0" encoding="utf-8"?>
<!-- Generator: Adobe Illustrator 16.0.0, SVG Export Plug-In . SVG Version: 6.00 Build 0)  -->
<!DOCTYPE svg PUBLIC "-//W3C//DTD SVG 1.1//EN" "http://www.w3.org/Graphics/SVG/1.1/DTD/svg11.dtd">
<svg version="1.1" id="Calque_1" xmlns="http://www.w3.org/2000/svg" xmlns:xlink="http://www.w3.org/1999/xlink" x="0px" y="0px"
	 width="127.723px" height="114.863px" viewBox="895.834 481.888 127.723 114.863"
	 enable-background="new 895.834 481.888 127.723 114.863" xml:space="preserve">
<g id="Calque_4">
</g>
<g id="Calque_3">
	<path fill="#0094FF" d="M993.124,504.255l2.829-4.78l-9.804-8.992l-12.709,6.242c-1.95-0.427-3.941-0.768-5.97-1.013l-2.989-13.824
		l-13.304,0.067l-5.825,15.164c-0.979,0.247-1.965,0.521-2.953,0.823l-12.232-7.692l-9.253,9.557l3.121,6.812
		c-9.224,5.958-18.688,14.567-28.201,26.55c0,0,11.095,22,29.19,37.502l-5.027,8.494l9.804,8.992l12.775-6.275
		c2,0.85,4.048,1.572,6.142,2.151l2.751,12.719l13.304-0.067l4.666-12.146c2.237-0.516,4.509-1.222,6.81-2.146l9.536,5.996
		l9.254-9.557l-2.821-6.158c10.083-8.261,20.576-20.971,31.284-39.506C1024.479,531.474,1012.512,514.918,993.124,504.255z"/>
</g>
<g id="Calque_5">
	<path fill="#FFFFFF" d="M993.5,544.063l0.313-8.375l-9.375-2.5L982,527.25l3.875-7.75l-6-6.063L972,517.75l-6.063-2.375l-2-8.25
		h-9.375l-2.125,8.063l-7.125,2.563l-7-3.813l-6.125,5.813l4.025,6.771l-2.379,6.729L925,535.688v8.188l8.313,2.5l3,6.563
		l-4.125,7.813l5.813,5.875l7.625-4.625l7,3.188l2.5,8.063h8.125l2.188-8.25l7.25-2.938l7.625,4.563L987,560.25l-4.625-7.75
		l2.5-6.063L993.5,544.063z M959.021,554.209c-7.629,0-13.813-6.185-13.813-13.813c0-7.63,6.184-13.813,13.813-13.813
		s13.813,6.184,13.813,13.813C972.834,548.024,966.649,554.209,959.021,554.209z"/>
</g>
<g id="Calque_6">
	
		<rect x="949.635" y="542.717" transform="matrix(-0.848 0.53 -0.53 -0.848 2046.0112 503.6983)" fill="#FFFFFF" width="2.27" height="5.104"/>
	
		<rect x="952.666" y="540.748" transform="matrix(-0.848 0.53 -0.53 -0.848 2050.5693 498.4534)" fill="#FFFFFF" width="2.27" height="5.104"/>
	<polygon fill="#FFFFFF" points="964.813,542.453 963.063,540.167 957.188,544.124 954.484,539.795 960.5,536.333 958.771,533.5 
		968.542,533.5 	"/>
</g>
</svg>
